<?xml version="1.0" encoding="UTF-8" standalone="no"?>
<!--part of the rodentia icon theme by sixsixfive released under CC0 (https://creativecommons.org/publicdomain/zero/1.0/) on openclipart-->
<svg xmlns="http://www.w3.org/2000/svg" xmlns:xlink="http://www.w3.org/1999/xlink" viewBox="0 0 48 48">
 <defs id="0">
  <linearGradient id="2">
   <stop id="J" stop-color="#fff"/>
   <stop id="K" offset="1" stop-color="#fff" stop-opacity="0"/>
  </linearGradient>
  <linearGradient id="3">
   <stop id="L" stop-color="#fff" stop-opacity="0.8"/>
   <stop id="M" offset="1" stop-color="#fff" stop-opacity="0"/>
  </linearGradient>
  <linearGradient id="4">
   <stop id="N" stop-color="#2e3436"/>
   <stop id="O" offset="1" stop-color="#2e3436" stop-opacity="0"/>
  </linearGradient>
  <linearGradient id="5">
   <stop id="P" stop-color="#babdb6"/>
   <stop id="Q" offset="1" stop-color="#888a85"/>
  </linearGradient>
  <linearGradient id="6">
   <stop id="R" stop-color="#eeeeec"/>
   <stop id="S" offset="1" stop-color="#d3d7cf"/>
  </linearGradient>
  <radialGradient cx="25.978" cy="44.784" r="25.648" id="7" xlink:href="#4" gradientUnits="userSpaceOnUse" gradientTransform="matrix(1,0,0,0.1189711,0,39.455735)"/>
  <linearGradient y1="4.685" x2="0" y2="16.317" id="8" xlink:href="#5" gradientUnits="userSpaceOnUse" gradientTransform="translate(2.4683952e-7,-1.2954848)"/>
  <radialGradient cx="7.951" cy="12.07" r="20.813" id="9" xlink:href="#6" gradientUnits="userSpaceOnUse" gradientTransform="matrix(-0.3475935,2.1665084,-3.9268494,-0.6300222,57.705288,11.227585)"/>
  <linearGradient y1="5.656" x2="0" y2="42.34" id="A" xlink:href="#3" gradientUnits="userSpaceOnUse"/>
  <linearGradient x1="14.315" y1="-26.595" x2="29.838" y2="19.771" id="B" xlink:href="#2" gradientUnits="userSpaceOnUse"/>
 </defs>
 <g transform="translate(4.6839521e-8,0.09975695)" id="1">
  <path d="m 51.625748,44.783699 a 25.647936,3.051362 0 1 1 -51.29587205,0 25.647936,3.051362 0 1 1 51.29587205,0 z" transform="matrix(0.9357478,0,0,0.8804876,-0.3086803,2.2928219)" id="C" opacity="0.8" fill="url(#7)"/>
  <rect width="42.63" height="37.63" rx="3.043" x="2.685" y="3.889" id="D" fill="url(#8)" stroke="#555753"/>
  <g transform="matrix(0.4072511,0,0,0.4072511,-5.9980114,-0.590973)" id="E" opacity="0.5" fill="#fff">
   <path d="m 105.22307,25.426434 c 0,2.29944 -1.99116,4.163505 -4.44738,4.163505 -2.45622,0 -4.44738,-1.864065 -4.44738,-4.163505 0,-2.29944 1.99116,-4.163505 4.44738,-4.163505 2.45622,0 4.44738,1.864065 4.44738,4.163505 z" transform="matrix(1.3491096,0,0,1.4410943,-25.112886,-7.9421993)" id="T"/>
   <path d="m 105.22307,25.426434 c 0,2.29944 -1.99116,4.163505 -4.44738,4.163505 -2.45622,0 -4.44738,-1.864065 -4.44738,-4.163505 0,-2.29944 1.99116,-4.163505 4.44738,-4.163505 2.45622,0 4.44738,1.864065 4.44738,4.163505 z" transform="matrix(1.3491096,0,0,1.4410943,-38.712448,-7.9421993)" id="U"/>
   <path d="m 105.22307,25.426434 c 0,2.29944 -1.99116,4.163505 -4.44738,4.163505 -2.45622,0 -4.44738,-1.864065 -4.44738,-4.163505 0,-2.29944 1.99116,-4.163505 4.44738,-4.163505 2.45622,0 4.44738,1.864065 4.44738,4.163505 z" transform="matrix(1.3491096,0,0,1.4410943,-52.312448,-7.9421993)" id="V"/>
  </g>
  <g transform="matrix(0.4072511,0,0,0.4072511,-5.9980114,-1.5909729)" id="F">
   <path d="m 105.22307,25.426434 c 0,2.29944 -1.99116,4.163505 -4.44738,4.163505 -2.45622,0 -4.44738,-1.864065 -4.44738,-4.163505 0,-2.29944 1.99116,-4.163505 4.44738,-4.163505 2.45622,0 4.44738,1.864065 4.44738,4.163505 z" transform="matrix(1.3491096,0,0,1.4410943,-25.112886,-7.9421993)" id="W" fill="#2e3436"/>
   <path d="m 105.22307,25.426434 c 0,2.29944 -1.99116,4.163505 -4.44738,4.163505 -2.45622,0 -4.44738,-1.864065 -4.44738,-4.163505 0,-2.29944 1.99116,-4.163505 4.44738,-4.163505 2.45622,0 4.44738,1.864065 4.44738,4.163505 z" transform="matrix(1.3491096,0,0,1.4410943,-38.712448,-7.9421993)" id="X" fill="#2e3436"/>
   <path d="m 105.22307,25.426434 c 0,2.29944 -1.99116,4.163505 -4.44738,4.163505 -2.45622,0 -4.44738,-1.864065 -4.44738,-4.163505 0,-2.29944 1.99116,-4.163505 4.44738,-4.163505 2.45622,0 4.44738,1.864065 4.44738,4.163505 z" transform="matrix(1.3491096,0,0,1.4410943,-52.312448,-7.9421993)" id="Y" fill="#2e3436"/>
  </g>
  <path d="m 3.1875,16.625 0,23.15625 c 0,1.412963 1.1182879,2.53125 2.53125,2.53125 l 36.5625,0 c 1.412963,0 2.53125,-1.118287 2.53125,-2.53125 l 0,-23.15625 -41.625,0 z" transform="translate(2.4683952e-7,-1.2954848)" id="G" fill="url(#9)"/>
  <path d="m 5.71875,6.15625 c -1.1645251,0 -2.0625,0.8979751 -2.0625,2.0625 l 0,31.5625 c 0,1.164526 0.897975,2.0625 2.0625,2.0625 l 36.5625,0 c 1.164526,0 2.0625,-0.897974 2.0625,-2.0625 l 0,-31.5625 c 0,-1.1645253 -0.897974,-2.0625 -2.0625,-2.0625 l -36.5625,0 z" transform="translate(2.4683952e-7,-1.2954848)" id="H" opacity="0.8" fill="none" stroke="url(#A)"/>
  <path d="m 5.71875,5.65625 c -1.4295372,0 -2.5625,1.132963 -2.5625,2.5625 l 0,6.8125 c 12.552343,-3.321292 26.890816,-5.0502927 41.6875,-6.25 l 0,-0.5625 c 0,-1.4295373 -1.132962,-2.5625 -2.5625,-2.5625 l -36.5625,0 z" transform="translate(2.4683952e-7,-1.2954848)" id="I" opacity="0.6" fill="url(#B)"/>
 </g>
</svg>
